<svg height="13" width="16" xmlns="http://www.w3.org/2000/svg"><path d="m5.032 13c6.038 0 9.34-5.001 9.34-9.338 0-.142-.003-.283-.009-.424.641-.463 1.198-1.042 1.637-1.7-.588.262-1.221.438-1.885.518.678-.407 1.198-1.05 1.443-1.816-.634.376-1.336.649-2.084.797-.599-.638-1.452-1.037-2.396-1.037-1.813 0-3.283 1.47-3.283 3.282 0 .257.029.507.085.748-2.729-.137-5.148-1.443-6.766-3.429-.282.485-.445 1.048-.445 1.649 0 1.138.58 2.144 1.461 2.732-.539-.017-1.045-.164-1.487-.411v.042c0 1.59 1.131 2.917 2.633 3.218-.276.075-.566.115-.865.115-.212 0-.417-.021-.617-.059.418 1.304 1.629 2.253 3.066 2.279-1.123.881-2.539 1.405-4.077 1.405-.265 0-.526-.015-.783-.046 1.453.932 3.178 1.475 5.032 1.475" fill="#1c294b" fill-rule="evenodd"/></svg>