<svg height="23" width="39" xmlns="http://www.w3.org/2000/svg"><path d="m34.683 12.381v4.002h-3.133v-4.002h-4.307v-2.912h4.307v-4.003h3.133v4.003h4.306v2.912zm-22.318 10.626c-6.833 0-12.372-5.149-12.372-11.5s5.539-11.499 12.372-11.499c3.218 0 6.146 1.143 8.347 3.014l-3.647 3.318c-1.268-.998-2.908-1.601-4.7-1.601-4.022 0-7.282 3.031-7.282 6.768 0 3.739 3.26 6.768 7.282 6.768 3.112 0 5.766-1.813 6.809-4.366h-6.965v-4.803h6.965 5.25.042c.178.773.272 1.577.272 2.401 0 6.351-5.54 11.5-12.373 11.5z" fill="#1c294b" fill-rule="evenodd"/></svg>