<svg height="17" width="38" xmlns="http://www.w3.org/2000/svg"><path d="m37.999 8.289c0-.469-.376-.85-.841-.85h-21.192v-6.583c0-.297-.153-.573-.402-.727-.251-.152-.562-.164-.824-.029l-14.284 7.435c-.277.142-.453.429-.456.744v.01c0 .308.169.597.439.745l14.285 7.848c.26.142.576.135.831-.016.255-.153.411-.432.411-.729v-2.906c0-.47-.376-.85-.841-.85-.464 0-.84.38-.84.85v1.478l-11.649-6.401 11.649-6.061v6.042c0 .469.376.848.84.848h22.033c.465 0 .841-.379.841-.848" fill="#fff" fill-rule="evenodd"/></svg>