<svg height="54" width="19" xmlns="http://www.w3.org/2000/svg"><path d="m18.106 16.864c-.097.027-.191.064-.296.064h-.891-14.836-.891c-.105 0-.2-.038-.297-.064-.506-.145-.89-.617-.89-1.202v-.865c0-.696.536-1.265 1.187-1.265h.762 15.094.762c.653 0 1.187.569 1.187 1.265v.865c0 .585-.385 1.057-.891 1.202zm-5.372-6.353c-1.718.068-3.166-1.363-3.231-3.196-.064-1.834 1.278-3.376 2.996-3.445 1.72-.07 3.168 1.36 3.233 3.194s-1.278 3.377-2.998 3.447zm-6.183-5.894c-1.155 0-2.092-.998-2.092-2.23s.937-2.23 2.092-2.23 2.091.998 2.091 2.23-.936 2.23-2.091 2.23zm-.514 4.333c0 .805-.613 1.456-1.366 1.456-.756 0-1.369-.652-1.369-1.456 0-.806.614-1.459 1.369-1.459.753 0 1.366.653 1.366 1.459zm10.882 13.416v1.807h-6.74c-.492 0-.889.425-.889.947 0 .526.397.952.889.952h6.74v2.81h-9.283c-.492 0-.89.423-.89.947s.398.952.89.952h9.283v2.809h-6.74c-.492 0-.889.425-.889.948 0 .525.397.951.889.951h6.739v2.809h-9.283c-.492 0-.889.424-.889.948 0 .525.397.949.889.949h9.283v3.113 2.139c0 4.176-3.203 7.596-7.119 7.596h-.593c-3.919 0-7.123-3.419-7.123-7.596v-2.139-20.942-2.906h14.836z" fill="#1c294b" fill-rule="evenodd"/></svg>