<svg height="12" width="12" xmlns="http://www.w3.org/2000/svg"><path d="m0 12v-2.4c.005-1.65 1.087-3.072 2.622-3.682-.437-.606-.693-1.334-.693-2.118 0-2.095 1.826-3.8 4.071-3.8s4.071 1.705 4.071 3.8c0 .784-.256 1.512-.693 2.118 1.535.61 2.617 2.031 2.622 3.679v2.403zm6-10.4c-1.3 0-2.357.987-2.357 2.2s1.057 2.2 2.357 2.2 2.357-.987 2.357-2.2-1.057-2.2-2.357-2.2zm4.286 8c-.004-1.3-1.128-2.361-2.515-2.394-.538.244-1.134.394-1.771.394s-1.233-.15-1.771-.394c-1.387.033-2.511 1.094-2.515 2.397v.797h8.572z" fill="#1c294b" fill-rule="evenodd"/></svg>