<svg height="18" width="41" xmlns="http://www.w3.org/2000/svg"><path d="m.981 8.758c0-.496.396-.899.885-.899h22.308v-6.955c0-.313.162-.605.424-.768.264-.16.591-.173.866-.031l15.037 7.856c.291.149.476.453.48.786v.011c0 .325-.178.63-.463.788l-15.037 8.291c-.273.15-.606.142-.874-.017-.268-.162-.433-.457-.433-.77v-3.07c0-.497.396-.899.885-.899.488 0 .884.402.884.899v1.561l12.263-6.763-12.263-6.405v6.385c0 .495-.396.895-.884.895h-23.193c-.489 0-.885-.4-.885-.895" fill="#c2c9cd" fill-rule="evenodd"/></svg>