<svg height="14" width="14" xmlns="http://www.w3.org/2000/svg"><path d="m11.007 14.002v-5.414c0-1.258-.433-2.117-1.517-2.117-.827 0-1.318.579-1.535 1.139-.079.199-.099.479-.099.759v5.633h-2.993v-6.652c0-1.218-.039-2.238-.078-3.116h2.598l.139 1.358h.059c.393-.64 1.358-1.579 2.973-1.579 1.969 0 3.446 1.339 3.446 4.216v5.773zm-9.452-10.968c-.945 0-1.555-.678-1.555-1.518 0-.859.63-1.518 1.595-1.518s1.556.659 1.575 1.518c0 .84-.61 1.518-1.615 1.518zm1.517 10.968h-2.993v-9.768h2.993z" fill="#1c294b" fill-rule="evenodd"/></svg>