<svg xmlns="http://www.w3.org/2000/svg" width="32" height="29" viewBox="0 0 32 29">
  <defs>
    <style>
      .cls-1 {
        fill: #1c294b;
        fill-rule: evenodd;
      }
    </style>
  </defs>
  <path id="ico-press" class="cls-1" d="M668.4,278a0.886,0.886,0,0,0-.8.784V287.4h-4.8a0.874,0.874,0,0,0-.8.784v15.284A3.574,3.574,0,0,0,665.6,307h24.8a3.574,3.574,0,0,0,3.6-3.527V278.784a0.823,0.823,0,0,0-.8-0.784H668.4Zm0.8,1.568h23.2v23.905a1.958,1.958,0,0,1-2,1.959H668.5a3.364,3.364,0,0,0,.7-1.959V279.568Zm3.2,2.351a0.874,0.874,0,0,0-.8.784v5.486a0.823,0.823,0,0,0,.8.784h8a0.823,0.823,0,0,0,.8-0.784V282.7a0.823,0.823,0,0,0-.8-0.784h-8Zm11.2,0.784a0.784,0.784,0,1,0,0,1.567h5.6a0.784,0.784,0,1,0,0-1.567h-5.6Zm-10.4.783h6.4V287.4h-6.4v-3.919Zm10.4,3.136a0.784,0.784,0,1,0,0,1.567h5.6a0.784,0.784,0,1,0,0-1.567h-5.6Zm-20,2.351h4v14.5a2,2,0,0,1-4,0v-14.5Zm8.8,2.351a0.784,0.784,0,1,0,0,1.568h16.8a0.784,0.784,0,1,0,0-1.568H672.4Zm0,4.311a0.784,0.784,0,1,0,0,1.568h16.8a0.784,0.784,0,1,0,0-1.568H672.4Zm0,4.311a0.784,0.784,0,1,0,0,1.568h16.8a0.784,0.784,0,1,0,0-1.568H672.4Z" transform="translate(-662 -278)"/>
</svg>
