<svg height="14" width="31" xmlns="http://www.w3.org/2000/svg"><path d="m31.014 6.827c0-.387-.306-.7-.686-.7h-17.288v-5.422c0-.244-.125-.472-.328-.599-.205-.125-.459-.135-.672-.024l-11.653 6.124c-.226.116-.369.353-.372.613v.008c0 .254.138.492.359.614l11.653 6.463c.212.117.47.111.677-.013.209-.126.336-.356.336-.601v-2.393c0-.387-.306-.7-.686-.7-.378 0-.685.313-.685.7v1.217l-9.503-5.272 9.503-4.992v4.977c0 .386.307.699.685.699h17.974c.38 0 .686-.313.686-.699" fill="#1c294b" fill-rule="evenodd"/></svg>