<svg height="41" width="40" xmlns="http://www.w3.org/2000/svg"><path d="m2.945 20.062c-.152.027-.301.039-.447.039-1.187 0-2.239-.848-2.459-2.051-.244-1.357.659-2.656 2.019-2.899 6.121-1.101 12.696-4.215 19.558-9.217l-2.885-3.493 13.769-2.297-4.89 13.048-2.81-3.4c-7.642 5.617-14.81 9.003-21.855 10.27zm4.555 7.523h-2.5c-1.379 0-2.5 1.115-2.5 2.494v7.485c0 1.378 1.121 2.494 2.5 2.494h2.5c1.382 0 2.5-1.116 2.5-2.494v-7.485c0-1.379-1.118-2.494-2.5-2.494zm20-9.979h-2.5c-1.382 0-2.5 1.116-2.5 2.495v17.463c0 1.378 1.118 2.494 2.5 2.494h2.5c1.382 0 2.5-1.116 2.5-2.494v-17.463c0-1.379-1.118-2.495-2.5-2.495zm10-4.989h-2.5c-1.382 0-2.5 1.116-2.5 2.495v22.452c0 1.378 1.118 2.494 2.5 2.494h2.5c1.382 0 2.5-1.116 2.5-2.494v-22.452c0-1.379-1.118-2.495-2.5-2.495zm-20 9.979h-2.5c-1.379 0-2.5 1.115-2.5 2.494v12.474c0 1.378 1.121 2.494 2.5 2.494h2.5c1.382 0 2.5-1.116 2.5-2.494v-12.474c0-1.379-1.118-2.494-2.5-2.494z" fill="#1c294b" fill-rule="evenodd"/></svg>