<svg height="32" width="33" xmlns="http://www.w3.org/2000/svg"><path d="m32.578 6.784c.054.066.097.138.141.21.076.124.137.25.18.393.033.104.053.212.065.322.007.061.036.113.036.176 0 .05-.024.092-.029.141-.01.144-.039.282-.083.416-.021.059-.036.117-.062.173-.076.166-.179.316-.303.451-.025.027-.05.052-.077.078-.041.04-.077.085-.122.122l-5.409 4.226c-.303.235-.676.359-1.048.359-.511 0-1.021-.235-1.366-.663-.594-.76-.456-1.851.303-2.43l1.168-.913c-11.531 1.035-16.811 5.771-16.938 14.957v5.471c-.014.952-.786 1.726-1.738 1.726s-1.739-.774-1.739-1.74v-24.947l-2.759 2.131c-.318.248-.69.373-1.063.373-.51 0-1.021-.235-1.366-.663-.593-.76-.455-1.851.304-2.431l5.56-4.351c.052-.04.113-.056.168-.089.102-.063.199-.125.313-.166.095-.034.193-.042.291-.059s.187-.059.291-.059c.089 0 .166.038.252.051.117.016.234.028.346.069.097.035.179.09.267.141.07.04.145.062.211.112l5.408 4.227c.759.593.883 1.685.304 2.43-.593.76-1.683.898-2.428.304l-2.622-2.047v8.416c4.335-5.578 11.844-7.035 17.358-7.417l-1.753-1.369c-.759-.594-.883-1.685-.304-2.431.593-.759 1.67-.884 2.429-.303l5.56 4.35c.012.01.02.023.032.032.082.068.153.14.222.221z" fill="#ffd231" fill-rule="evenodd"/></svg>