<svg height="85" width="93" xmlns="http://www.w3.org/2000/svg"><path d="m71.547 85c.67 0 1.245-.096 1.915-.382 1.533-.764 2.586-2.292 2.586-4.011v-10.123h3.257c7.566 0 13.696-6.018 13.696-13.563v-43.359c0-7.45-6.13-13.562-13.792-13.562h-65.417c-7.567 0-13.793 6.112-13.793 13.562v43.359c0 7.449 6.13 13.563 13.793 13.563h38.695l16.186 13.465c.862.669 1.82 1.051 2.874 1.051zm7.662-80.225c4.981 0 9.003 3.916 9.003 8.787v43.359c0 4.872-4.022 8.787-9.003 8.787h-8.046v14.039l-16.952-14.039h-40.419c-4.981 0-9.004-3.915-9.004-8.787v-43.359c0-4.871 4.023-8.787 9.004-8.787z" fill="#eaeef2" fill-rule="evenodd"/></svg>