<svg height="15" width="15" xmlns="http://www.w3.org/2000/svg"><path d="m10.861 15h-6.722c-2.282 0-4.139-1.858-4.139-4.14v-6.721c0-2.283 1.857-4.139 4.139-4.139h6.722c2.282 0 4.139 1.856 4.139 4.139v6.721c0 2.282-1.857 4.14-4.139 4.14zm2.808-4.14v-6.721c0-1.549-1.26-2.808-2.808-2.808h-6.722c-1.548 0-2.808 1.259-2.808 2.808v6.721c0 1.549 1.26 2.809 2.808 2.809h6.722c1.548 0 2.808-1.26 2.808-2.809zm-2.142-6.402c-.256 0-.508-.104-.689-.285-.182-.182-.287-.434-.287-.691s.105-.509.287-.691c.181-.181.433-.285.689-.285.258 0 .509.104.69.285.182.182.286.434.286.691s-.104.509-.286.691c-.181.181-.432.285-.69.285zm-4.027 6.907c-2.131 0-3.865-1.734-3.865-3.865s1.734-3.865 3.865-3.865 3.865 1.734 3.865 3.865-1.734 3.865-3.865 3.865zm0-6.4c-1.397 0-2.534 1.137-2.534 2.535 0 1.397 1.137 2.533 2.534 2.533s2.534-1.136 2.534-2.533c0-1.398-1.137-2.535-2.534-2.535z" fill="#1c294b" fill-rule="evenodd"/></svg>