<svg xmlns="http://www.w3.org/2000/svg" width="15.031" height="26.938" viewBox="0 0 15.031 26.938">
  <metadata><?xpacket begin="﻿" id="W5M0MpCehiHzreSzNTczkc9d"?>
<x:xmpmeta xmlns:x="adobe:ns:meta/" x:xmptk="Adobe XMP Core 5.6-c140 79.160451, 2017/05/06-01:08:21        ">
   <rdf:RDF xmlns:rdf="http://www.w3.org/1999/02/22-rdf-syntax-ns#">
      <rdf:Description rdf:about=""/>
   </rdf:RDF>
</x:xmpmeta>
                                                                                                    
                                                                                                    
                                                                                                    
                                                                                                    
                                                                                                    
                                                                                                    
                                                                                                    
                                                                                                    
                                                                                                    
                                                                                                    
                                                                                                    
                                                                                                    
                                                                                                    
                                                                                                    
                                                                                                    
                                                                                                    
                                                                                                    
                                                                                                    
                                                                                                    
                                                                                                    
                           
<?xpacket end="w"?></metadata>
<defs>
    <style>
      .cls-1 {
        fill: #1c294b;
        fill-rule: evenodd;
      }
    </style>
  </defs>
  <path id="ico-scroll" class="cls-1" d="M798.656,655.018a0.732,0.732,0,0,1,.753.71v12.8h5.836a0.768,0.768,0,0,1,.644.338,0.678,0.678,0,0,1,.025.694l-6.59,12.037a0.758,0.758,0,0,1-.659.385h-0.009a0.765,0.765,0,0,1-.662-0.371l-6.955-12.034a0.679,0.679,0,0,1,.016-0.7,0.762,0.762,0,0,1,.645-0.346l6.574,0a0.709,0.709,0,1,1,0,1.416l-5.309,0,5.673,9.814,5.373-9.815h-5.356a0.73,0.73,0,0,1-.751-0.707v-13.51a0.733,0.733,0,0,1,.752-0.709" transform="translate(-790.969 -655.031)"/>
</svg>
