<svg height="36" width="30" xmlns="http://www.w3.org/2000/svg"><path d="m25.225 0h-23.856c-.753 0-1.363.597-1.363 1.333v33.334c0 .736.61 1.333 1.363 1.333h23.856c2.631 0 4.771-2.094 4.771-4.667v-26.666c0-2.574-2.14-4.667-4.771-4.667zm2.045 31.333c0 1.103-.917 2-2.045 2h-22.493v-30.666h22.493c1.128 0 2.045.897 2.045 2zm-5.453-4.666h-13.632c-.753 0-1.363.597-1.363 1.334 0 .736.61 1.333 1.363 1.333h13.632c.753 0 1.363-.597 1.363-1.333 0-.737-.61-1.334-1.363-1.334zm-6.816-20c-4.51 0-8.179 3.589-8.179 8s3.669 8 8.179 8 8.179-3.589 8.179-8-3.669-8-8.179-8zm-5.272 9.341h1.756c.121 1.134.395 2.238.819 3.288-1.259-.704-2.201-1.884-2.575-3.288zm1.757-2.675h-1.759c.373-1.41 1.319-2.595 2.584-3.3-.426 1.054-.703 2.162-.825 3.3zm3.512 5.369c-.388-.856-.645-1.76-.772-2.694h1.549c-.129.934-.388 1.839-.777 2.694zm-.771-5.369c.128-.936.387-1.845.778-2.702.388.858.646 1.766.773 2.702zm3.464 5.967c.426-1.051.701-2.156.824-3.292h1.758c-.375 1.407-1.32 2.588-2.582 3.292zm.827-5.967c-.121-1.137-.395-2.242-.819-3.295 1.26.706 2.203 1.888 2.576 3.295z" fill="#ffd231" fill-rule="evenodd"/></svg>