<svg height="35" width="39" xmlns="http://www.w3.org/2000/svg"><path d="m19.506 35c-.019 0-.037 0-.057 0-2.996 0-6.02-.649-8.744-1.88l-.801-.398-7.943 1.578c-.53.1-1.078-.055-1.462-.426-.386-.372-.556-.906-.457-1.425l1.527-7.989-.62-1.285c-.026-.055-.05-.112-.07-.171-.617-1.789-.908-3.653-.864-5.54-.001-9.614 8.744-17.464 19.491-17.464 10.749 0 19.493 7.85 19.493 17.5 0 9.649-8.744 17.5-19.493 17.5zm0-31.818c-8.957 0-16.243 6.423-16.243 14.318-.034 1.521.189 2.99.665 4.402l.804 1.664c.146.303.19.643.127.972l-1.18 6.174 6.132-1.218c.107-.02.215-.031.323-.031.254 0 .506.058.735.172l1.251.622c2.246 1.013 4.8 1.561 7.333 1.561h.049c8.961 0 16.248-6.422 16.248-14.318 0-7.895-7.287-14.318-16.244-14.318zm3.065 13.937-2.09 1.267v1.5c0 .879-.727 1.591-1.624 1.591s-1.624-.712-1.624-1.591v-2.386c0-.551.291-1.063.769-1.352l2.714-1.647c.252-.26.403-.608.416-.97-.001-.843-.751-1.521-1.694-1.537-.782 0-1.419.471-1.616 1.161-.242.846-1.141 1.342-2.001 1.104-.865-.236-1.369-1.114-1.127-1.96.609-2.134 2.581-3.55 4.873-3.485h.001c2.627 0 4.812 2.141 4.812 4.773-.046 1.316-.622 2.522-1.579 3.363-.071.063-.149.12-.23.169zm-4.551 6.09c.816-.364 1.78-.012 2.152.788.372.799.013 1.742-.804 2.107-.816.365-1.779.012-2.152-.787-.372-.799-.012-1.743.804-2.108z" fill="#fed33a" fill-rule="evenodd"/></svg>