<svg height="27" width="34" xmlns="http://www.w3.org/2000/svg"><path d="m32.788 27.005h-31.579c-.669 0-1.212-.678-1.212-1.516 0-.837.543-1.516 1.212-1.516h31.579c.669 0 1.211.679 1.211 1.516 0 .838-.542 1.516-1.211 1.516zm-5.791-19.309-6.518 13.239c-.42.834-1.259 1.167-1.987.788l-.403-.227c-.001-.001-.002-.001-.003-.002-.539-.29-.787-1.073-.555-1.747l3.029-8.826-9.934 4.938c-1.039.524-2.202.506-3.231-.05l-5.706-3.069c-.167-.09-.306-.249-.392-.451-.21-.492-.062-1.105.332-1.368l1.615-1.067c.18-.12.389-.151.586-.086l5.35 1.79c.557.2 1.151.162 1.688-.106l8.452-4.231-6.994-3.761c-.001-.001-.002-.001-.003-.002-.538-.291-.787-1.073-.554-1.748l.181-.505c.319-.902 1.111-1.384 1.874-1.142l11.937 3.943 4.806-2.386c.706-.369 1.522-.068 1.954.723.052.1.097.207.134.317.343 1.03-.046 2.215-.869 2.645z" fill="#ffd231" fill-rule="evenodd"/></svg>