<svg height="18" width="19" xmlns="http://www.w3.org/2000/svg"><path d="m14.226 17.017v-6.579c0-1.53-.557-2.574-1.95-2.574-1.063 0-1.696.704-1.974 1.384-.102.243-.127.583-.127.923v6.846h-3.85v-8.085c0-1.481-.05-2.718-.1-3.787h3.342l.178 1.651h.075c.507-.778 1.748-1.918 3.824-1.918 2.533 0 4.432 1.627 4.432 5.123v7.016zm-12.154-13.329c-1.215 0-2-.825-2-1.845 0-1.044.81-1.845 2.05-1.845 1.241 0 2.001.801 2.026 1.845 0 1.02-.785 1.845-2.076 1.845zm1.95 13.329h-3.849v-11.872h3.849z" fill="#c2cace" fill-rule="evenodd"/></svg>