<svg height="19" width="24" xmlns="http://www.w3.org/2000/svg"><path d="m20.188 19.003c2.109 0 3.811-1.707 3.811-3.821 0-2.115-1.702-3.821-3.811-3.821s-3.811 1.706-3.811 3.821c0 2.114 1.702 3.821 3.811 3.821zm-2.363-4.331h2.973l-.788-.79.712-.713 2.007 2.013-2.007 2.012-.712-.713.788-.79h-2.973zm-14.785-1.452 4.954-4.662-4.929-4.203c-.279-.23-.305-.637-.076-.892.229-.28.635-.306.889-.076l6.91 5.859 6.91-5.859c.28-.23.661-.204.89.076.228.28.203.662-.077.892l-4.928 4.203 3.175 2.981c-.304.28-.584.611-.813.993l-3.328-3.159-1.422 1.223c-.127.102-.254.153-.407.153-.152 0-.305-.051-.406-.153l-1.397-1.223-5.056 4.79c-.127.127-.28.178-.432.178-.178 0-.33-.077-.457-.204-.254-.255-.254-.662 0-.917zm12.347 3.388h-12.373c-1.422 0-2.591-1.172-2.591-2.598v-10.649c0-1.426 1.169-2.599 2.591-2.599h15.548c1.423 0 2.592 1.173 2.592 2.599v6.93c-.331-.077-.636-.102-.991-.102-.102 0-.204 0-.28.025v-6.853c0-.713-.584-1.324-1.321-1.324h-15.548c-.711 0-1.321.585-1.321 1.324v10.649c0 .713.585 1.324 1.321 1.324h12.169c.026.434.077.866.204 1.274z" fill="#c2cace" fill-rule="evenodd"/></svg>