<svg height="16" width="12" xmlns="http://www.w3.org/2000/svg"><path d="m11.756 14.673c-.094.061-1.979 1.329-5.635 1.329-3.619 0-5.748-1.248-5.843-1.308l-.282-.161v-8.234h2.035v-1.972c0-2.396 1.847-4.329 4.09-4.329s4.071 1.953 4.071 4.349v1.972h1.809v8.173zm-2.657-10.346c0-1.752-1.357-3.181-2.997-3.181s-2.978 1.429-2.978 3.181v1.972h5.975zm1.828 3.14h-9.838v6.382c.641.321 2.412 1.026 5.032 1.026 2.601 0 4.203-.705 4.787-1.007h.019zm-4.806 5.636h-1.056l.566-2.979c-.151-.141-.245-.342-.245-.564 0-.423.32-.765.716-.765s.716.342.716.765c0 .222-.075.423-.207.564l.565 2.979z" fill="#1c294b" fill-rule="evenodd"/></svg>