<svg height="18" width="40" xmlns="http://www.w3.org/2000/svg"><path d="m39.987 8.788c0-.498-.395-.901-.885-.901h-22.307v-6.98c0-.315-.162-.607-.424-.771-.264-.16-.591-.173-.866-.03l-15.037 7.883c-.291.15-.477.454-.48.788v.011c0 .327.178.634.463.79l15.036 8.321c.274.15.607.143.875-.017.268-.162.433-.458.433-.773v-3.081c0-.498-.396-.901-.886-.901-.488 0-.883.403-.883.901v1.567l-12.263-6.787 12.263-6.426v6.406c0 .498.395.899.883.899h23.193c.49 0 .885-.401.885-.899" fill="#c2c9cd" fill-rule="evenodd"/></svg>