<svg height="31" width="40" xmlns="http://www.w3.org/2000/svg"><path d="m33.532 31.005c3.578 0 6.466-2.901 6.466-6.497 0-3.594-2.888-6.495-6.466-6.495s-6.466 2.901-6.466 6.495c0 3.596 2.888 6.497 6.466 6.497zm-4.009-7.362h5.043l-1.336-1.343 1.207-1.212 3.406 3.42-3.406 3.422-1.207-1.212 1.336-1.343h-5.043zm-25.088-2.469 8.405-7.925-8.362-7.146c-.475-.39-.518-1.083-.13-1.516.388-.476 1.078-.52 1.509-.13l11.725 9.961 11.725-9.961c.475-.39 1.121-.346 1.509.13.388.477.345 1.126-.129 1.516l-8.363 7.146 5.388 5.067c-.517.476-.991 1.04-1.379 1.689l-5.647-5.371-2.414 2.079c-.216.173-.431.26-.69.26-.258 0-.517-.087-.689-.26l-2.371-2.079-8.579 8.143c-.215.216-.474.303-.733.303-.301 0-.56-.13-.775-.347-.432-.433-.432-1.126 0-1.559zm20.95 5.76h-20.994c-2.414 0-4.396-1.992-4.396-4.418v-18.103c0-2.424 1.982-4.417 4.396-4.417h26.382c2.414 0 4.397 1.993 4.397 4.417v11.781c-.56-.13-1.078-.173-1.681-.173-.173 0-.345 0-.474.043v-11.651c0-1.212-.992-2.252-2.242-2.252h-26.382c-1.206 0-2.241.997-2.241 2.252v18.103c0 1.213.991 2.253 2.241 2.253h20.649c.043.736.129 1.472.345 2.165z" fill="#1c294b" fill-rule="evenodd"/></svg>