<svg height="33" width="38" xmlns="http://www.w3.org/2000/svg"><path d="m25.276.058 11.762 3.667c.552.171.962.733.961 1.318v26.583c-.007.851-.949 1.551-1.753 1.303l-11.366-3.539-11.366 3.539c-.256.079-.535.079-.791 0l-11.762-3.668c-.548-.169-.956-.723-.961-1.303v-26.582c0-.856.944-1.567 1.753-1.318l11.366 3.539 11.366-3.539c.29-.1.582-.061.791 0zm.961 3.166v23.717l9.048 2.821v-23.716zm-2.714 0-9.047 2.822v23.717l9.047-2.822zm-20.809 0v23.717l9.048 2.821v-23.716z" fill="#fed33a" fill-rule="evenodd"/></svg>