<svg height="38" width="39" xmlns="http://www.w3.org/2000/svg"><path d="m37.877 37.958c-.799.203-1.613-.28-1.816-1.08-.704-2.76-1.929-5.506-3.855-8.641-.31-.504-.823-.831-1.409-.898-3.777-.432-7.579-.651-11.298-.651-3.72 0-7.521.219-11.299.651-.585.067-1.098.394-1.407.898-1.928 3.135-3.152 5.881-3.856 8.641-.172.676-.78 1.127-1.446 1.127-.122 0-.247-.015-.372-.047-.798-.205-1.281-1.021-1.076-1.823.78-3.061 2.117-6.07 4.207-9.471.793-1.291 2.11-2.13 3.612-2.301 3.889-.446 7.804-.671 11.636-.671s7.748.225 11.638.671c1.503.17 2.819 1.011 3.612 2.303 2.088 3.399 3.426 6.408 4.206 9.468.204.803-.278 1.619-1.077 1.824zm-18.378-15.82c-6.085 0-11.035-4.966-11.035-11.07s4.95-11.07 11.035-11.07c6.084 0 11.035 4.966 11.035 11.07s-4.951 11.07-11.035 11.07zm0-19.145c-4.439 0-8.049 3.622-8.049 8.074s3.61 8.075 8.049 8.075c4.438 0 8.048-3.623 8.048-8.075 0-4.451-3.61-8.074-8.048-8.074z" fill="#fed33a" fill-rule="evenodd"/></svg>