<svg height="17" width="20" xmlns="http://www.w3.org/2000/svg"><path d="m6.211 16.059c7.34 0 11.353-6.11 11.353-11.408 0-.174-.003-.346-.011-.519.779-.565 1.456-1.272 1.99-2.076-.715.32-1.484.534-2.291.632.824-.496 1.456-1.282 1.754-2.218-.77.459-1.624.793-2.533.974-.728-.78-1.765-1.268-2.913-1.268-2.204 0-3.991 1.796-3.991 4.009 0 .315.035.621.104.915-3.317-.168-6.257-1.763-8.225-4.189-.343.592-.54 1.281-.54 2.015 0 1.391.704 2.618 1.775 3.337-.654-.02-1.269-.201-1.807-.501v.051c0 1.942 1.375 3.563 3.201 3.93-.336.092-.688.142-1.052.142-.257 0-.507-.026-.75-.073.508 1.593 1.981 2.753 3.727 2.785-1.365 1.076-3.086 1.716-4.956 1.716-.321 0-.639-.018-.952-.055 1.766 1.137 3.863 1.801 6.117 1.801" fill="#c2cace" fill-rule="evenodd"/></svg>