<svg height="15" width="26" xmlns="http://www.w3.org/2000/svg"><path d="m22.289 8.078v2.609h-2.006v-2.609h-2.759v-1.899h2.759v-2.61h2.006v2.61h2.759v1.899zm-14.296 6.928c-4.377 0-7.926-3.357-7.926-7.499 0-4.14 3.549-7.497 7.926-7.497 2.061 0 3.937.745 5.346 1.964l-2.335 2.164c-.813-.651-1.863-1.044-3.011-1.044-2.577 0-4.665 1.977-4.665 4.413 0 2.439 2.088 4.414 4.665 4.414 1.993 0 3.693-1.183 4.362-2.847h-4.463v-3.133h4.463 3.363.027c.113.506.173 1.029.173 1.566 0 4.142-3.548 7.499-7.925 7.499z" fill="#c2cace" fill-rule="evenodd"/></svg>