<svg height="18" width="15" xmlns="http://www.w3.org/2000/svg"><path d="m14 18h-13-1v-1-3h1v3h13v-3h1v3 1zm-5.98-4.249c-.075.145-.227.237-.394.239h-.005c-.163 0-.315-.089-.394-.231l-4.146-7.519c-.074-.136-.07-.302.009-.436.081-.135.228-.217.385-.217h1.535c.249 0 .449.198.449.442 0 .245-.2.443-.449.443h-.78l3.381 6.131 3.202-6.131h-3.192c-.248 0-.448-.198-.448-.443v-5.596c0-.244.2-.442.448-.442s.449.198.449.442v5.154h3.478c.157 0 .302.081.384.212.08.132.087.295.015.433z" fill="#1c294b" fill-rule="evenodd"/></svg>