<svg height="42" width="45" xmlns="http://www.w3.org/2000/svg"><path d="m3.452 17.224 2.741 2.777-.503-4.813zm-2.923-.563 4.43-4.65c.137-.133.274-.266.411-.354 1.234-.841 2.65-1.373 2.65-1.373l1.187 3.676.549 1.549 2.649-5.225s.548-.15 1.781.647l-2.799 3.776c-1.416 1.638-1.403 4.92.241 6.337l2.558 2.126.092.974v7.934c0 .203-1.226-.074-1.234.134-.097 2.664 0 7.43 0 7.43.046.575-.411 1.107-.959 1.196-.639.088-1.233-.311-1.325-.931v-7.829c-.045-.177-.822 0-1.004 0-.229 0-.611-.221-.657 0l-.166 8.027c-.091.62-.685 1.019-1.324.93-.594-.089-1.005-.62-.96-1.196 0 0 .094-5.681.209-7.761.007-.134-1.997.387-1.488-.469.39-.655.686-7.465.686-7.465l-5.299-4.472c-.914-.797-1.005-2.126-.228-3.011zm9.757-6.377c3.517-.044 3.015-4.516 3.015-4.516-.137-3.012-2.741-2.967-2.969-2.967-.275 0-2.832-.045-2.97 2.967-.045 0-.548 4.472 2.924 4.516zm31.262 6.94-2.239-2.036-.502 4.813zm2.923-1.713c.777.926.685 2.361-.228 3.147l-5.345 4.629.868 16.476c.046.602-.411 1.158-.959 1.25-.64.093-1.233-.324-1.325-.972l-2.284-12.496c-.045-.185-.228-.37-.411-.37-.228 0-.365.138-.411.37l-2.284 12.496c-.091.648-.685 1.065-1.324.972-.594-.092-1.005-.648-.96-1.25l.868-16.476.092-1.018 2.558-2.222c1.644-1.48 1.872-4.073.411-5.785l-3.746-4.073c1.233-.833 2.558-1.389 2.558-1.389l1.188 3.842.685-2.036c-1.279-1.759.137-1.852.319-1.852.183 0 1.599.046.32 1.852l.685 2.036 1.188-3.842s1.416.556 2.649 1.436c.138.091.274.23.412.37zm-28.823 1.713 2.741 2.777-.503-4.813zm10.963 2.777 2.741-2.777-2.239-2.036zm-13.841-4.49 4.431-4.859c.137-.139.274-.278.411-.37 1.234-.88 2.649-1.435 2.649-1.435l1.188 3.841.685-2.036c-1.279-1.759.137-1.852.32-1.852s1.599.047.32 1.852l.685 2.036 1.188-3.841s1.416.555 2.649 1.435c.137.092.274.231.411.37l4.522 4.859c.777.926.685 2.361-.228 3.147l-5.344 4.629.867 16.523c.046.602-.411 1.157-.959 1.25-.639.092-1.233-.324-1.325-.973l-2.283-12.496c-.046-.185-.229-.37-.411-.37-.229 0-.366.139-.412.37l-2.284 12.496c-.091.649-.685 1.065-1.324.973-.594-.093-1.005-.648-.96-1.25l.868-16.477-5.344-4.628c-1.005-.833-1.096-2.222-.32-3.194zm9.73-7.543c3.517-.047 3.015-4.722 3.015-4.722-.138-3.147-2.741-3.1-2.969-3.1-.275 0-2.833-.047-2.97 3.1-.045 0-.548 4.675 2.924 4.722zm9.227-4.722c.137-3.147 2.741-3.1 2.969-3.1.274 0 2.832-.047 2.969 3.1 0 0 .502 4.675-2.969 4.722-3.472-.047-2.969-4.722-2.969-4.722z" fill="#1c294b" fill-rule="evenodd"/></svg>